<?xml version="1.0" standalone="no"?>
<!DOCTYPE svg PUBLIC "-//W3C//DTD SVG 20010904//EN"
 "http://www.w3.org/TR/2001/REC-SVG-20010904/DTD/svg10.dtd">
<svg version="1.0" xmlns="http://www.w3.org/2000/svg"
 width="500.000000pt" height="500.000000pt" viewBox="0 0 500.000000 500.000000"
 preserveAspectRatio="xMidYMid meet">
<metadata>
Created by potrace 1.16, written by Peter Selinger 2001-2019
</metadata>
<g transform="translate(0.000000,500.000000) scale(0.100000,-0.100000)"
fill="#000000" stroke="none">
<path d="M1752 4245 c-431 -66 -807 -256 -1098 -557 -293 -302 -471 -666 -530
-1084 -30 -221 -10 -527 50 -747 l23 -82 33 65 c18 36 56 108 85 160 l53 95
-10 75 c-15 115 -3 397 21 512 95 440 351 822 711 1061 142 94 240 142 398
193 457 151 959 100 1364 -139 142 -84 241 -162 358 -284 134 -138 216 -255
294 -415 33 -70 65 -127 69 -128 5 0 27 15 50 34 23 18 65 48 94 65 l52 32
-20 47 c-11 26 -48 95 -81 153 -275 486 -764 831 -1325 934 -123 23 -467 29
-591 10z"/>
<path d="M4201 4004 c-39 -28 -77 -30 -127 -9 l-35 14 21 -28 c29 -42 34 -81
16 -125 -9 -21 -16 -40 -16 -42 0 -2 16 8 36 21 42 29 70 31 119 11 41 -17 41
-17 15 26 -24 39 -25 73 -5 122 8 20 14 36 13 35 -2 0 -18 -12 -37 -25z"/>
<path d="M4365 3564 c-87 -73 -169 -83 -272 -34 -35 16 -63 27 -63 24 0 -4 13
-23 29 -43 71 -91 80 -165 31 -269 -30 -64 -28 -66 25 -27 89 66 163 73 263
25 64 -30 66 -28 27 25 -66 90 -73 169 -25 265 17 33 27 60 23 60 -5 -1 -21
-12 -38 -26z"/>
<path d="M3149 3343 c-15 -37 -14 -199 1 -356 21 -216 -1 -384 -62 -470 l-21
-29 32 -103 c36 -118 38 -148 14 -192 -10 -17 -80 -88 -155 -158 -76 -70 -138
-129 -138 -131 0 -8 241 158 315 217 82 65 156 136 178 170 32 50 77 373 77
559 0 112 -19 172 -117 372 -58 120 -76 148 -93 148 -13 0 -24 -10 -31 -27z"/>
<path d="M2520 3250 c0 -64 26 -141 105 -310 34 -74 66 -146 70 -159 7 -23 6
-24 -29 -18 -32 5 -35 4 -27 -11 4 -9 14 -41 21 -70 10 -43 15 -52 29 -46 33
13 51 16 51 8 0 -5 7 -66 15 -137 22 -189 25 -183 -162 -388 -206 -227 -208
-226 -35 15 63 88 119 173 124 189 15 42 4 131 -36 291 -22 87 -44 151 -60
175 -47 67 -277 341 -287 341 -34 0 -8 -125 66 -310 95 -241 103 -302 51 -430
-30 -74 -57 -105 -141 -165 -79 -56 -164 -98 -278 -137 -83 -29 -103 -32 -207
-31 -129 0 -212 17 -325 64 -78 32 -201 106 -192 115 3 3 16 -1 29 -10 12 -8
65 -31 116 -51 271 -104 559 -73 800 88 l75 50 -84 43 c-89 45 -143 87 -137
107 6 17 115 51 231 72 l97 17 -7 42 c-8 56 -29 112 -59 164 l-26 44 -86 -6
c-48 -3 -139 -8 -202 -11 -551 -28 -953 -157 -1219 -391 -232 -206 -467 -598
-612 -1023 -16 -47 -29 -86 -29 -88 0 -3 28 21 63 52 35 31 77 65 94 76 l30
19 38 -65 c111 -189 336 -432 526 -567 101 -73 296 -178 421 -227 387 -153
876 -163 1293 -26 139 46 389 176 510 266 259 191 467 443 600 721 136 289
194 568 182 893 -9 239 -2 234 -127 98 l-105 -113 -7 -138 c-27 -586 -355
-1104 -878 -1390 -128 -70 -329 -140 -490 -171 -175 -34 -420 -32 -618 5 -335
61 -695 266 -919 522 -69 80 -213 283 -213 301 0 11 148 57 247 78 55 11 132
16 263 16 163 1 200 -3 313 -26 70 -15 169 -40 220 -56 285 -90 392 -114 512
-115 93 -1 105 2 169 32 55 26 94 58 210 170 77 76 214 205 304 286 161 147
247 239 277 297 15 28 14 39 -24 192 -82 329 -138 462 -257 602 -168 199 -246
285 -260 285 -10 0 -14 -13 -14 -50z"/>
<path d="M3838 2966 c-115 -47 -253 -143 -351 -243 l-57 -59 -21 -153 c-11
-84 -18 -156 -15 -158 8 -9 142 104 211 177 186 196 237 251 283 308 56 68 82
112 82 137 0 23 -65 19 -132 -9z"/>
</g>
</svg>
